<?xml version="1.0" standalone="no"?>
<!DOCTYPE svg PUBLIC "-//W3C//DTD SVG 20010904//EN"
 "http://www.w3.org/TR/2001/REC-SVG-20010904/DTD/svg10.dtd">
<svg version="1.0" xmlns="http://www.w3.org/2000/svg"
 width="360.000000pt" height="360.000000pt" viewBox="0 0 360.000000 360.000000"
 preserveAspectRatio="xMidYMid meet">
<metadata>
Created by potrace 1.14, written by Peter Selinger 2001-2017
</metadata>
<g transform="translate(0.000000,360.000000) scale(0.100000,-0.100000)"
fill="#000000" stroke="none">
<path d="M1892 3383 c-19 -4 -21 -7 -11 -19 15 -19 -1 -18 -29 2 -13 9 -26 13
-30 10 -12 -12 -31 -101 -26 -118 6 -21 0 -22 -27 -7 -12 6 -28 7 -37 4 -23
-10 -115 -6 -127 6 -5 6 -3 9 8 9 9 0 17 5 17 10 0 17 -21 11 -41 -12 -17 -21
-18 -21 -19 -4 0 14 -5 17 -22 12 -13 -3 -26 -6 -30 -6 -3 0 -9 -8 -11 -17 -4
-17 -5 -17 -6 0 -2 28 -101 24 -160 -7 -25 -13 -54 -27 -63 -30 -22 -7 -23
-20 -3 -40 10 -9 11 -17 5 -21 -6 -3 -17 1 -26 9 -8 9 -19 16 -24 16 -13 0
-20 -28 -8 -32 8 -3 7 -10 -1 -26 -13 -24 -33 -30 -30 -9 2 21 -13 57 -22 51
-5 -3 -7 -10 -4 -15 3 -5 -1 -6 -11 -2 -13 5 -15 3 -7 -13 15 -29 5 -44 -29
-44 -30 0 -31 0 -13 -20 18 -19 17 -20 -4 -20 -12 0 -24 -7 -27 -15 -4 -8 -14
-15 -24 -15 -9 0 -25 -9 -35 -20 -11 -13 -25 -18 -37 -14 -28 9 -52 -3 -71
-35 -21 -36 -21 -42 -2 -35 9 4 15 0 15 -10 0 -9 -7 -16 -16 -16 -9 0 -22 -7
-29 -16 -6 -9 -24 -16 -38 -16 -15 0 -27 -2 -27 -3 0 -13 24 -65 30 -65 4 0 8
-15 8 -32 0 -33 0 -33 -44 -29 -45 3 -57 14 -27 25 12 5 13 10 6 17 -6 6 -16
8 -22 5 -15 -9 -14 -39 1 -54 9 -9 9 -12 -1 -12 -22 0 -43 -29 -39 -56 2 -18
-3 -30 -16 -38 -10 -6 -29 -21 -41 -33 -12 -12 -47 -34 -76 -48 -67 -34 -64
-32 -50 -49 10 -12 8 -17 -11 -26 -13 -7 -40 -28 -60 -48 l-37 -35 -61 53 -60
52 36 -73 c35 -73 35 -76 29 -162 -6 -79 -5 -90 11 -102 18 -12 18 -15 2 -49
-22 -46 -67 -68 -153 -76 l-70 -7 63 -2 c70 -1 123 16 162 54 l26 25 34 -37
35 -36 -3 -106 c-1 -58 2 -122 7 -141 6 -25 7 -8 4 55 -6 95 8 172 29 172 10
0 12 -20 10 -77 -5 -103 12 -205 48 -292 17 -40 28 -62 25 -48 -3 14 -10 67
-16 119 -19 156 -3 246 54 308 24 27 37 21 37 -17 0 -27 24 -54 73 -85 11 -7
17 -27 19 -59 2 -51 27 -88 56 -84 8 2 17 -3 19 -9 3 -7 -2 -13 -11 -13 -8 0
-19 -8 -25 -17 -9 -17 -10 -17 -17 2 -10 26 -30 46 -38 38 -3 -3 2 -12 12 -19
12 -10 13 -13 3 -14 -8 0 -1 -10 14 -22 20 -15 30 -18 33 -10 5 16 33 16 31 0
-4 -32 2 -39 28 -36 20 2 36 -6 61 -32 40 -41 23 -55 -19 -14 -16 15 -31 25
-33 23 -3 -3 -6 -29 -8 -59 -2 -30 -7 -58 -12 -61 -9 -7 10 -49 23 -49 4 0 13
11 19 25 14 30 32 33 32 5 0 -21 34 -45 50 -35 15 9 12 25 -5 25 -12 0 -11 4
5 20 11 11 28 20 37 20 15 0 14 -2 -3 -14 -21 -16 -19 -22 11 -28 12 -2 19 2
17 10 -1 6 2 12 8 12 5 0 10 -11 10 -24 0 -13 7 -29 15 -36 8 -7 15 -18 15
-25 0 -18 -47 -27 -73 -14 l-22 11 22 -23 c18 -18 25 -20 37 -10 18 15 37 6
30 -14 -5 -13 23 -35 46 -35 8 0 8 6 0 20 -14 26 -5 40 26 40 17 0 24 5 24 20
0 14 5 18 16 13 9 -3 14 -13 11 -24 -3 -11 -1 -19 4 -19 5 0 9 5 9 11 0 7 12
8 33 4 20 -4 27 -3 19 3 -14 9 -6 42 10 42 5 0 6 -4 3 -10 -3 -5 1 -10 11 -10
11 0 15 -6 11 -19 -2 -10 -1 -25 4 -32 7 -11 9 -11 10 -1 1 6 2 17 3 24 1 15
26 23 26 9 0 -15 36 -14 61 2 17 10 22 9 33 -5 7 -10 16 -18 20 -18 12 0 6 28
-9 40 -18 15 -18 20 -1 43 14 17 16 17 65 -8 29 -14 49 -30 46 -35 -3 -5 1 -7
9 -4 15 6 97 -32 196 -91 195 -116 254 -156 417 -285 127 -101 185 -153 189
-170 16 -72 47 -99 119 -108 40 -4 48 -1 73 26 53 57 77 174 47 232 -20 39
-57 57 -134 66 -59 6 -73 14 -299 164 -240 159 -272 183 -252 195 15 9 12 25
-5 25 -8 0 -15 -7 -15 -15 0 -8 -2 -15 -5 -15 -12 0 -142 94 -157 113 -29 36
-20 75 9 46 6 -6 16 -8 22 -5 20 13 11 26 -16 26 -31 0 -23 11 19 26 41 14 45
39 7 39 -17 0 -29 -5 -29 -12 0 -7 -7 -13 -15 -13 -8 0 -15 7 -15 15 0 9 7 18
15 21 17 7 21 25 4 22 -20 -5 -21 20 -1 26 11 4 18 15 18 29 -1 16 4 22 18 20
24 -2 55 35 56 65 0 14 9 26 24 32 13 5 30 17 37 27 8 10 20 18 27 19 27 2 32
4 32 15 0 13 -35 3 -69 -20 -14 -9 -33 -15 -42 -13 -10 2 -20 -5 -24 -18 -7
-23 -16 -25 -32 -9 -9 9 -13 2 -18 -27 -10 -62 -13 -66 -42 -62 -37 4 -45 38
-10 38 20 0 24 4 20 20 -3 12 0 20 7 20 10 0 10 3 0 15 -14 17 -4 37 18 34 40
-4 48 1 47 29 -1 15 3 33 9 40 7 10 5 16 -5 23 -8 5 -10 9 -5 9 5 0 3 7 -4 15
-19 22 3 44 25 25 10 -8 15 -9 15 -1 0 6 -4 11 -10 11 -5 0 -10 5 -10 11 0 7
9 9 23 6 18 -5 22 -2 24 20 1 24 -1 25 -34 20 -24 -4 -33 -2 -30 6 2 7 10 12
18 12 10 0 14 12 13 38 -1 24 3 36 10 34 6 -2 16 3 21 10 9 12 16 12 38 2 15
-7 27 -16 27 -21 0 -4 7 -8 15 -8 19 0 19 14 0 30 -11 9 -12 16 -5 25 6 7 8
24 5 37 -5 19 -1 27 17 36 13 6 17 11 11 11 -7 1 -13 10 -13 20 0 11 6 22 13
24 10 4 10 6 0 6 -7 1 -13 8 -13 17 0 12 7 14 33 9 17 -4 38 -12 45 -17 9 -8
12 -5 12 12 0 25 -25 49 -52 50 -34 0 -18 20 16 20 25 0 40 -7 51 -22 l17 -23
-7 25 c-4 14 -4 22 0 18 4 -4 20 12 35 35 34 52 73 89 125 115 22 12 36 21 30
21 -5 1 -17 -3 -25 -8 -21 -14 -32 -3 -19 20 14 27 8 31 -24 16 -27 -12 -39
-57 -15 -57 7 0 -6 -19 -28 -42 -23 -24 -48 -54 -58 -68 -9 -13 -16 -19 -16
-13 0 6 -9 13 -21 16 -12 3 -19 9 -16 14 3 5 -7 8 -21 8 -18 -1 -31 -9 -37
-23 -9 -20 -15 -22 -55 -16 -59 8 -69 19 -34 38 l29 15 -37 -6 c-43 -6 -53 12
-14 27 23 8 66 55 66 71 0 5 -7 9 -15 9 -7 0 -19 8 -24 18 -9 15 -10 15 -11 1
0 -9 -7 -22 -16 -30 -14 -12 -14 -14 0 -25 15 -10 14 -12 -5 -17 -11 -3 -27
-3 -35 0 -16 6 -19 23 -4 23 6 0 10 6 10 14 0 8 9 17 19 21 13 4 18 12 14 22
-3 8 -1 18 4 22 15 9 23 54 13 71 -8 12 -13 11 -33 -8 -29 -27 -47 -28 -47 -3
0 10 -9 21 -20 24 -22 6 -28 27 -7 27 9 0 8 3 -2 9 -7 5 -10 14 -7 20 11 18
26 13 26 -9 0 -11 5 -20 10 -20 6 0 10 -7 10 -15 0 -19 14 -19 29 -1 8 10 9
16 1 21 -16 10 -12 45 5 45 8 0 15 -9 15 -19 0 -16 7 -19 38 -18 20 1 40 6 44
12 13 18 19 -2 9 -29 -7 -17 -7 -26 -1 -27 19 -3 25 -5 46 -16 19 -11 21 -10
16 12 -3 20 0 25 15 25 10 0 24 -5 30 -11 8 -8 13 -8 17 0 11 17 -2 30 -24 24
-17 -4 -20 0 -20 25 0 17 -5 34 -10 37 -6 4 -7 12 -4 18 4 7 3 8 -2 4 -5 -5
-9 -14 -9 -20 0 -15 -54 -10 -74 6 -11 9 -13 9 -8 0 4 -6 2 -15 -4 -18 -17
-11 -22 1 -9 25 21 39 -36 79 -69 48 -10 -11 -12 -10 -9 1 2 8 -13 23 -32 33
-38 21 -80 78 -80 108 0 10 -4 22 -10 25 -19 12 -10 25 19 25 25 0 28 3 23 26
-4 25 -3 26 22 22 20 -4 24 -2 17 5 -6 6 -11 14 -11 18 0 4 19 -11 42 -32 47
-43 58 -47 58 -24 0 13 4 14 21 5 24 -14 130 -49 144 -50 6 0 3 4 -4 9 -12 8
-10 11 11 16 22 6 26 12 26 48 1 43 -8 70 -24 68 -5 -1 -11 15 -14 36 -5 36
-7 38 -40 36 -19 -1 -27 1 -17 4 25 7 17 36 -13 44 -28 8 -73 9 -108 2z m78
-43 c0 -5 -11 -10 -24 -10 -14 0 -28 5 -31 10 -4 6 7 10 24 10 17 0 31 -4 31
-10z m55 -90 c3 -5 -1 -10 -10 -10 -9 0 -13 5 -10 10 3 6 8 10 10 10 2 0 7 -4
10 -10z m-645 -10 c0 -14 26 -13 50 2 23 15 38 4 19 -14 -20 -19 -65 -16 -78
5 -7 11 -8 17 -1 17 5 0 10 -4 10 -10z m324 -15 c6 -16 36 -21 36 -5 0 5 7 7
15 4 8 -4 15 -10 15 -15 0 -4 -7 -6 -15 -3 -13 5 -14 2 -6 -18 9 -23 7 -25
-16 -20 -14 3 -28 13 -30 23 -3 11 -11 19 -19 19 -8 0 -11 6 -8 15 4 8 10 15
14 15 4 0 10 -7 14 -15z m-387 -32 c-9 -9 -19 -14 -23 -11 -10 10 6 28 24 28
15 0 15 -1 -1 -17z m96 1 c-2 -5 -7 -9 -13 -8 -5 1 -19 2 -31 3 -11 0 -18 5
-14 10 7 12 61 7 58 -5z m167 6 c0 -5 -4 -10 -10 -10 -5 0 -10 5 -10 10 0 6 5
10 10 10 6 0 10 -4 10 -10z m-83 -6 c-3 -3 -12 -4 -19 -1 -8 3 -5 6 6 6 11 1
17 -2 13 -5z m150 0 c-3 -3 -12 -4 -19 -1 -8 3 -5 6 6 6 11 1 17 -2 13 -5z
m-315 -36 c-6 -6 -16 -7 -22 -3 -9 6 -9 9 1 16 17 10 34 0 21 -13z m58 12 c0
-5 -5 -10 -11 -10 -5 0 -7 5 -4 10 3 6 8 10 11 10 2 0 4 -4 4 -10z m150 -35
c-7 -8 -16 -15 -21 -15 -5 0 -9 7 -9 15 0 9 9 15 21 15 18 0 19 -2 9 -15z
m-252 -40 c1 -14 -2 -25 -7 -25 -5 0 -8 11 -8 25 0 14 2 25 6 25 4 0 8 -11 9
-25z m110 8 c-4 -22 -22 -20 -26 1 -2 10 3 16 13 16 10 0 15 -7 13 -17z m187
7 c-3 -5 -10 -10 -16 -10 -5 0 -9 5 -9 10 0 6 7 10 16 10 8 0 12 -4 9 -10z
m75 0 c0 -5 -7 -10 -15 -10 -8 0 -15 5 -15 10 0 6 7 10 15 10 8 0 15 -4 15
-10z m-180 -10 c0 -5 -4 -10 -9 -10 -6 0 -13 5 -16 10 -3 6 1 10 9 10 9 0 16
-4 16 -10z m-240 -14 c0 -3 -4 -8 -10 -11 -5 -3 -10 -1 -10 4 0 6 5 11 10 11
6 0 10 -2 10 -4z m102 -15 c-14 -12 -20 -25 -16 -36 6 -14 0 -15 -42 -10 -55
6 -62 11 -46 27 8 8 15 8 26 -1 12 -10 18 -8 31 13 12 17 26 26 44 26 l26 -1
-23 -18z m308 8 c0 -6 9 -8 20 -4 15 5 20 2 20 -10 0 -12 -5 -15 -17 -10 -10
4 -26 10 -35 12 -10 3 -15 9 -12 14 7 12 24 11 24 -2z m-239 -22 c1 -7 1 -15
0 -19 0 -4 4 -19 9 -33 8 -22 7 -25 -11 -25 -18 0 -19 2 -9 15 10 12 9 15 -5
15 -9 0 -15 6 -12 13 2 6 1 19 -4 27 -5 12 -2 16 12 17 10 1 20 -4 20 -10z
m314 3 c3 -5 1 -10 -4 -10 -6 0 -11 5 -11 10 0 6 2 10 4 10 3 0 8 -4 11 -10z
m-105 -20 c0 -5 -4 -10 -10 -10 -5 0 -10 5 -10 10 0 6 5 10 10 10 6 0 10 -4
10 -10z m-490 -21 c-23 -19 -23 -20 -4 -16 15 3 26 -3 38 -24 15 -26 15 -29 2
-29 -9 0 -16 5 -16 10 0 6 -9 10 -20 10 -11 0 -20 3 -20 8 0 4 -14 7 -32 7
-17 0 -33 6 -35 13 -3 6 2 12 10 12 9 0 17 -6 20 -12 5 -17 37 8 37 28 0 8 10
14 23 14 l22 0 -25 -21z m350 12 c0 -14 -18 -23 -30 -16 -6 4 -8 11 -5 16 8
12 35 12 35 0z m60 -11 c0 -5 -4 -10 -10 -10 -5 0 -10 5 -10 10 0 6 5 10 10
10 6 0 10 -4 10 -10z m40 0 c0 -5 -4 -10 -10 -10 -5 0 -10 5 -10 10 0 6 5 10
10 10 6 0 10 -4 10 -10z m80 6 c0 -11 -19 -15 -25 -6 -3 5 1 10 9 10 9 0 16
-2 16 -4z m110 -26 c0 -5 -4 -10 -10 -10 -5 0 -10 5 -10 10 0 6 5 10 10 10 6
0 10 -4 10 -10z m-403 -23 c4 -6 -2 -8 -14 -5 -11 3 -27 1 -36 -3 -9 -6 -18
-5 -22 0 -3 5 2 14 11 19 19 11 51 5 61 -11z m143 3 c0 -11 -7 -20 -15 -20
-17 0 -18 2 -9 24 9 23 24 20 24 -4z m220 -10 c0 -5 -4 -10 -10 -10 -5 0 -10
5 -10 10 0 6 5 10 10 10 6 0 10 -4 10 -10z m-316 -31 c-3 -5 -10 -7 -15 -3 -5
3 -7 10 -3 15 3 5 10 7 15 3 5 -3 7 -10 3 -15z m-309 -8 c-3 -6 -11 -8 -17 -5
-6 4 -5 9 3 15 16 10 23 4 14 -10z m435 9 c0 -5 -4 -10 -10 -10 -5 0 -10 5
-10 10 0 6 5 10 10 10 6 0 10 -4 10 -10z m70 -15 c0 -12 -21 -25 -41 -25 -16
0 -10 29 8 39 20 11 33 6 33 -14z m86 -2 c-10 -10 -19 5 -10 18 6 11 8 11 12
0 2 -7 1 -15 -2 -18z m134 17 c0 -5 -5 -10 -11 -10 -5 0 -7 5 -4 10 3 6 8 10
11 10 2 0 4 -4 4 -10z m-370 -10 c0 -5 -7 -10 -15 -10 -8 0 -15 5 -15 10 0 6
7 10 15 10 8 0 15 -4 15 -10z m-142 -6 c12 -4 22 -11 22 -16 0 -6 -9 -8 -20
-5 -11 3 -20 1 -20 -4 0 -5 -7 -9 -15 -9 -8 0 -15 9 -15 20 0 21 10 24 48 14z
m412 -20 c0 -8 -9 -14 -21 -14 -11 0 -17 -4 -14 -10 3 -5 -1 -10 -9 -10 -23 0
-20 19 6 40 25 20 38 18 38 -6z m190 18 c0 -13 -12 -22 -22 -16 -10 6 -1 24
13 24 5 0 9 -4 9 -8z m-530 -25 c11 -5 9 -6 -4 -4 -11 1 -21 9 -23 17 -3 10
-2 11 4 4 4 -6 15 -14 23 -17z m100 -12 c-12 -15 -30 -12 -30 6 0 5 10 9 21 9
18 0 19 -2 9 -15z m162 0 c0 -5 -5 -11 -11 -13 -6 -2 -11 4 -11 13 0 9 5 15
11 13 6 -2 11 -8 11 -13z m-512 -15 c0 -5 -9 -10 -20 -10 -11 0 -20 5 -20 10
0 6 9 10 20 10 11 0 20 -4 20 -10z m140 6 c0 -3 -4 -8 -10 -11 -5 -3 -10 -1
-10 4 0 6 5 11 10 11 6 0 10 -2 10 -4z m58 -8 c-3 -7 -11 -13 -18 -13 -7 0
-15 6 -17 13 -3 7 4 12 17 12 13 0 20 -5 18 -12z m70 -12 c-12 -7 -25 -11 -28
-9 -8 8 32 33 42 27 6 -4 -1 -12 -14 -18z m-368 5 c0 -6 -4 -13 -10 -16 -5 -3
-10 1 -10 9 0 9 5 16 10 16 6 0 10 -4 10 -9z m-89 -24 c-13 -13 -26 -3 -16 12
3 6 11 8 17 5 6 -4 6 -10 -1 -17z m294 13 c3 -5 1 -10 -4 -10 -6 0 -11 5 -11
10 0 6 2 10 4 10 3 0 8 -4 11 -10z m435 -5 c0 -8 -4 -15 -9 -15 -5 0 -11 7
-15 15 -3 9 0 15 9 15 8 0 15 -7 15 -15z m75 5 c3 -5 -3 -10 -14 -10 -12 0
-21 5 -21 10 0 6 6 10 14 10 8 0 18 -4 21 -10z m289 1 c3 -4 3 -11 0 -14 -8
-8 -34 3 -34 14 0 11 27 12 34 0z m-439 -11 c-3 -5 -11 -10 -16 -10 -6 0 -7 5
-4 10 3 6 11 10 16 10 6 0 7 -4 4 -10z m-745 -21 c0 -5 -4 -9 -10 -9 -5 0 -10
7 -10 16 0 8 5 12 10 9 6 -3 10 -10 10 -16z m570 -10 c0 -5 -4 -9 -10 -9 -5 0
-10 7 -10 16 0 8 5 12 10 9 6 -3 10 -10 10 -16z m301 -2 c-13 -13 -26 -3 -16
12 3 6 11 8 17 5 6 -4 6 -10 -1 -17z m-485 -12 c12 -9 14 -14 6 -15 -7 0 -20
7 -28 15 -20 19 -4 20 22 0z m449 5 c-3 -5 -10 -10 -16 -10 -5 0 -9 5 -9 10 0
6 7 10 16 10 8 0 12 -4 9 -10z m79 -6 c7 -19 -2 -37 -15 -29 -12 8 -12 45 0
45 5 0 12 -7 15 -16z m-126 -15 c23 -8 42 -17 42 -21 0 -5 7 -8 15 -8 16 0 65
-46 65 -60 0 -6 5 -10 10 -10 6 0 10 -6 10 -14 0 -8 10 -22 21 -30 15 -10 20
-22 16 -35 -3 -14 1 -22 14 -26 20 -7 25 -25 10 -40 -6 -6 -11 -44 -13 -87 -2
-42 -6 -74 -9 -72 -3 2 -14 -15 -24 -37 -10 -22 -44 -63 -74 -92 -31 -28 -50
-47 -43 -43 9 5 19 0 29 -13 13 -20 16 -21 27 -6 7 10 18 14 29 9 23 -8 17
-28 -10 -32 -12 -2 -23 -12 -26 -23 -4 -16 -11 -19 -26 -14 -12 4 -21 2 -21
-4 0 -6 -8 -11 -17 -11 -15 0 -13 4 7 19 l24 19 -49 0 c-47 -1 -86 -21 -71
-36 4 -3 11 0 16 8 7 12 12 12 22 2 6 -6 8 -12 4 -12 -5 0 -3 -6 3 -14 9 -11
20 -12 44 -5 42 12 57 -4 23 -26 -21 -14 -33 -16 -59 -8 -18 5 -31 15 -29 21
3 17 -29 15 -68 -4 -27 -14 -34 -14 -41 -3 -4 7 -11 10 -15 6 -9 -9 15 -37 32
-37 8 0 23 5 33 12 24 15 51 -4 51 -34 0 -17 5 -19 29 -16 28 4 29 3 15 -16
-12 -18 -12 -21 7 -32 21 -11 21 -11 -11 -47 -27 -29 -36 -33 -51 -24 -19 12
-49 -10 -49 -36 0 -9 -6 -17 -12 -20 -10 -3 -10 -7 0 -19 10 -13 10 -18 1 -24
-8 -4 -17 0 -23 11 -6 10 -23 29 -38 43 -15 14 -25 28 -23 32 3 4 -7 11 -20
14 -15 4 -23 11 -19 17 4 8 10 7 17 0 18 -18 29 -13 18 8 -11 20 -44 33 -58
22 -5 -3 0 2 10 12 19 17 19 17 -2 17 -22 0 -30 29 -8 31 21 2 71 -2 88 -7 12
-3 17 2 17 19 0 20 -4 23 -31 19 -29 -5 -30 -4 -24 28 7 31 6 32 -21 27 -32
-6 -58 5 -48 22 4 6 18 8 32 5 23 -6 25 -4 22 16 -4 27 -28 40 -28 15 0 -26
-23 -12 -32 20 -5 21 -3 32 10 42 9 8 11 12 5 8 -7 -3 -13 -1 -13 4 0 6 -6 11
-12 11 -7 0 -29 17 -49 38 -19 21 -41 36 -47 34 -7 -2 -12 0 -12 5 0 24 16 20
53 -12 71 -61 157 -69 239 -23 61 35 92 89 96 167 3 77 -18 124 -81 175 -33
27 -48 31 -110 34 -68 4 -75 2 -121 -30 -55 -37 -83 -83 -96 -155 l-8 -48 -1
61 c-1 79 21 152 64 209 19 25 32 45 28 45 -12 0 93 53 132 66 47 16 151 13
213 -7z m-533 1 c3 -5 1 -10 -4 -10 -6 0 -11 5 -11 10 0 6 2 10 4 10 3 0 8 -4
11 -10z m165 -20 c0 -5 -7 -10 -16 -10 -8 0 -12 5 -9 10 3 6 10 10 16 10 5 0
9 -4 9 -10z m530 -16 c0 -8 7 -14 15 -14 8 0 15 4 15 8 0 4 14 9 30 10 17 1
30 -3 30 -9 0 -7 -9 -9 -21 -6 -15 4 -23 0 -26 -14 -5 -19 -33 -27 -33 -9 0 5
-6 7 -14 4 -19 -7 -39 29 -24 44 13 13 28 6 28 -14z m-750 -2 c0 -13 -12 -22
-22 -16 -10 6 -1 24 13 24 5 0 9 -4 9 -8z m190 -27 c0 -16 -6 -25 -15 -25 -18
0 -18 5 -5 31 14 26 20 24 20 -6z m-435 -131 c-9 -71 -18 -133 -21 -139 -5
-11 1 74 12 170 l7 60 -39 -36 c-22 -20 -59 -49 -84 -64 l-45 -27 57 52 c49
43 56 55 48 70 -13 24 9 40 22 16 8 -15 12 -14 30 9 11 14 22 24 25 22 2 -3
-3 -62 -12 -133z m420 84 c-11 -6 -23 -16 -27 -22 -5 -7 -8 -8 -8 0 0 15 22
34 40 34 11 -1 10 -4 -5 -12z m-45 -8 c0 -5 -7 -10 -15 -10 -8 0 -15 5 -15 10
0 6 7 10 15 10 8 0 15 -4 15 -10z m-406 -119 c-8 -52 -15 -95 -16 -95 -2 -1
-24 20 -51 45 l-47 47 62 50 c35 27 64 49 65 48 0 0 -5 -43 -13 -95z m241 89
c3 -5 1 -10 -4 -10 -6 0 -11 5 -11 10 0 6 2 10 4 10 3 0 8 -4 11 -10z m845
-140 c0 -5 -4 -10 -10 -10 -5 0 -10 5 -10 10 0 6 5 10 10 10 6 0 10 -4 10 -10z
m70 -34 c0 -3 -4 -8 -10 -11 -5 -3 -10 -1 -10 4 0 6 5 11 10 11 6 0 10 -2 10
-4z m-1297 -72 l75 -66 -39 -39 c-21 -21 -39 -45 -39 -53 0 -32 -20 -24 -51
19 -19 26 -55 58 -86 75 -29 17 -53 34 -53 40 0 19 77 90 98 90 11 0 54 -29
95 -66z m1327 27 c0 -13 -29 -35 -37 -28 -7 8 15 37 28 37 5 0 9 -4 9 -9z
m-1037 -26 c-3 -9 -8 -14 -10 -11 -3 3 -2 9 2 15 9 16 15 13 8 -4z m137 -38
c0 -8 -12 -14 -30 -14 -33 0 -41 13 -12 20 32 9 42 7 42 -6z m750 -22 c0 -8
-4 -15 -10 -15 -5 0 -7 7 -4 15 4 8 8 15 10 15 2 0 4 -7 4 -15z m50 5 c0 -5
-7 -10 -15 -10 -8 0 -15 5 -15 10 0 6 7 10 15 10 8 0 15 -4 15 -10z m73 3 c4
-3 3 -11 -2 -17 -5 -6 -10 -14 -10 -18 -1 -5 -4 -8 -8 -7 -5 1 -7 5 -5 10 1 5
-6 9 -15 9 -15 0 -14 2 3 15 22 16 28 18 37 8z m-1013 -19 c0 -8 -4 -12 -10
-9 -5 3 -10 10 -10 16 0 5 5 9 10 9 6 0 10 -7 10 -16z m-175 -24 c3 -5 -6 -15
-20 -23 -14 -7 -39 -33 -55 -58 -32 -47 -41 -34 -16 25 20 49 75 83 91 56z
m1042 -5 c0 -8 -3 -13 -5 -10 -3 3 -12 -1 -21 -7 -10 -8 -9 -4 3 10 23 26 23
26 23 7z m-597 -25 c0 -5 -2 -10 -4 -10 -3 0 -8 5 -11 10 -3 6 -1 10 4 10 6 0
11 -4 11 -10z m560 -14 c0 -2 -12 -11 -27 -20 l-28 -17 24 20 c23 21 31 25 31
17z m78 -27 c-2 -6 -8 -10 -13 -10 -5 0 -11 4 -13 10 -2 6 4 11 13 11 9 0 15
-5 13 -11z m-868 -19 c0 -5 -5 -10 -11 -10 -5 0 -7 5 -4 10 3 6 8 10 11 10 2
0 4 -4 4 -10z m52 -50 c12 -11 19 -22 16 -26 -8 -7 -46 17 -52 33 -8 19 12 16
36 -7z m168 -11 c0 -5 -7 -9 -15 -9 -15 0 -20 12 -9 23 8 8 24 -1 24 -14z
m595 -19 c-5 -8 -11 -8 -17 -2 -6 6 -7 16 -3 22 5 8 11 8 17 2 6 -6 7 -16 3
-22z m-540 -10 c3 -5 1 -10 -4 -10 -6 0 -11 5 -11 10 0 6 2 10 4 10 3 0 8 -4
11 -10z m-45 -14 c0 -3 -4 -8 -10 -11 -5 -3 -10 -1 -10 4 0 6 5 11 10 11 6 0
10 -2 10 -4z m580 -11 c0 -8 -7 -15 -15 -15 -16 0 -20 12 -8 23 11 12 23 8 23
-8z m-510 -10 c0 -8 -4 -15 -10 -15 -5 0 -7 7 -4 15 4 8 8 15 10 15 2 0 4 -7
4 -15z m-130 -5 c0 -5 -2 -10 -4 -10 -3 0 -8 5 -11 10 -3 6 -1 10 4 10 6 0 11
-4 11 -10z m120 -29 c0 -18 -18 -21 -30 -6 -10 13 -9 15 9 15 11 0 21 -4 21
-9z m523 -21 c18 -21 24 -70 8 -70 -13 0 -21 27 -15 45 4 10 0 15 -15 15 -21
0 -27 10 -14 23 10 11 17 8 36 -13z m-73 -10 c0 -5 -4 -10 -10 -10 -5 0 -10 5
-10 10 0 6 5 10 10 10 6 0 10 -4 10 -10z m35 -38 c1 -12 -4 -22 -12 -22 -16 0
-17 -17 -1 -22 6 -2 8 -10 4 -16 -10 -17 -26 -15 -26 3 0 8 -4 15 -10 15 -5 0
-10 5 -10 10 0 6 7 10 15 10 9 0 15 10 15 26 0 31 23 28 25 -4z m-565 14 c0
-3 -4 -8 -10 -11 -5 -3 -10 -1 -10 4 0 6 5 11 10 11 6 0 10 -2 10 -4z m45 -46
c3 -5 1 -10 -4 -10 -6 0 -11 5 -11 10 0 6 2 10 4 10 3 0 8 -4 11 -10z m473
-53 c2 -10 -3 -17 -12 -17 -30 0 -12 -61 25 -88 14 -10 16 -18 9 -37 -6 -16
-5 -25 3 -28 9 -3 9 -9 0 -24 -9 -16 -8 -23 5 -37 22 -22 1 -46 -22 -26 -9 7
-13 16 -10 21 3 5 0 17 -5 28 -11 20 -62 35 -72 20 -7 -11 -39 -1 -39 12 0 5
7 9 15 9 9 0 12 6 9 15 -4 9 0 15 9 15 10 0 13 7 10 24 -3 13 0 27 6 30 16 11
13 26 -5 26 -12 0 -10 6 10 21 14 11 26 29 26 40 0 25 33 22 38 -4z m-893 -7
c3 -5 1 -10 -4 -10 -6 0 -11 5 -11 10 0 6 2 10 4 10 3 0 8 -4 11 -10z m535 0
c0 -5 -4 -10 -10 -10 -5 0 -10 5 -10 10 0 6 5 10 10 10 6 0 10 -4 10 -10z m50
0 c0 -5 -4 -10 -10 -10 -5 0 -10 5 -10 10 0 6 5 10 10 10 6 0 10 -4 10 -10z
m445 -20 c3 -5 -1 -10 -9 -10 -9 0 -16 5 -16 10 0 6 4 10 9 10 6 0 13 -4 16
-10z m-460 -20 c3 -5 1 -10 -4 -10 -6 0 -11 5 -11 10 0 6 2 10 4 10 3 0 8 -4
11 -10z m211 -46 c0 -30 -2 -33 -12 -19 -7 9 -10 25 -7 35 8 32 19 23 19 -16z
m-626 -42 c0 -13 -12 -22 -22 -16 -10 6 -1 24 13 24 5 0 9 -4 9 -8z m610 -12
c0 -5 -4 -10 -10 -10 -5 0 -10 5 -10 10 0 6 5 10 10 10 6 0 10 -4 10 -10z
m-660 -15 c0 -8 -2 -15 -4 -15 -2 0 -6 7 -10 15 -3 8 -1 15 4 15 6 0 10 -7 10
-15z m745 -48 c23 -18 6 -30 -30 -21 -27 7 -33 19 -12 27 19 8 22 8 42 -6z
m-327 -105 c15 -10 36 -22 47 -26 20 -7 20 -8 1 -22 -19 -14 -19 -14 2 -14 12
0 22 -5 22 -11 0 -7 -9 -9 -21 -6 -14 4 -19 2 -16 -7 7 -18 -13 -46 -20 -28
-2 6 -9 10 -13 7 -5 -3 -11 -1 -15 5 -3 5 -1 10 4 10 6 0 11 5 11 10 0 6 -7
10 -15 10 -18 0 -20 26 -2 33 9 4 8 8 -3 16 -8 6 -19 12 -24 14 -9 3 0 27 11
27 2 0 17 -8 31 -18z m-348 -7 c7 -8 9 -15 6 -15 -4 0 -14 7 -22 15 -9 8 -11
15 -6 15 5 0 15 -7 22 -15z m454 -51 c18 -7 22 -44 5 -44 -6 0 -9 6 -6 13 2 6
-3 17 -12 24 -17 13 -12 16 13 7z m-204 -24 c0 -5 -5 -10 -11 -10 -5 0 -7 5
-4 10 3 6 8 10 11 10 2 0 4 -4 4 -10z m175 -30 c3 -5 -1 -10 -9 -10 -9 0 -16
5 -16 10 0 6 4 10 9 10 6 0 13 -4 16 -10z m-175 -10 c0 -5 -5 -10 -11 -10 -5
0 -7 5 -4 10 3 6 8 10 11 10 2 0 4 -4 4 -10z"/>
<path d="M1402 2178 c-9 -9 -5 -16 18 -30 17 -10 30 -22 30 -28 0 -5 5 -10 11
-10 6 0 9 6 6 14 -3 7 0 19 6 25 15 15 27 14 21 -3 -3 -8 5 -21 18 -30 30 -21
38 -20 38 4 0 11 -4 20 -10 20 -22 0 -8 19 18 24 15 2 -3 3 -40 1 -40 -1 -65
1 -62 7 3 5 -6 6 -22 2 -19 -5 -25 -4 -20 5 9 14 3 14 -12 -1z"/>
<path d="M1598 2173 c7 -3 16 -2 19 1 4 3 -2 6 -13 5 -11 0 -14 -3 -6 -6z"/>
<path d="M1528 2002 c-10 -2 -18 -10 -18 -18 0 -18 8 -18 27 1 18 18 15 23 -9
17z"/>
<path d="M1437 1963 c-14 -13 -6 -23 18 -23 18 0 23 4 19 15 -6 16 -26 20 -37
8z"/>
<path d="M1560 1916 c0 -9 5 -16 10 -16 6 0 10 4 10 9 0 6 -4 13 -10 16 -5 3
-10 -1 -10 -9z"/>
<path d="M1650 1754 c0 -15 26 -19 34 -5 3 5 -3 11 -14 14 -13 3 -20 0 -20 -9z"/>
<path d="M1913 3115 c4 -9 7 -19 7 -21 0 -2 7 -4 15 -4 22 0 18 18 -7 31 -18
10 -20 9 -15 -6z"/>
<path d="M2100 3110 c0 -5 5 -10 11 -10 5 0 7 5 4 10 -3 6 -8 10 -11 10 -2 0
-4 -4 -4 -10z"/>
<path d="M2130 3075 c7 -8 17 -15 22 -15 6 0 5 7 -2 15 -7 8 -17 15 -22 15 -6
0 -5 -7 2 -15z"/>
<path d="M2300 3079 c-12 -9 -10 -10 8 -6 18 4 22 1 22 -20 l0 -26 20 23 c11
13 19 24 18 25 -13 10 -56 12 -68 4z"/>
<path d="M2250 3058 c0 -7 13 -13 30 -14 27 -1 28 0 12 12 -22 17 -42 18 -42
2z"/>
<path d="M2167 3032 c7 -4 14 -21 16 -38 2 -16 7 -35 11 -42 4 -7 5 -16 2 -21
-4 -5 3 -7 14 -4 11 3 28 2 37 -2 10 -5 22 -7 26 -6 5 1 6 -2 3 -7 -3 -5 -19
-7 -37 -4 -22 3 -30 1 -25 -7 4 -6 16 -11 26 -11 10 0 21 -6 23 -12 4 -9 6 -9
6 1 1 8 8 22 16 32 15 15 13 17 -30 23 -25 4 -45 11 -45 16 0 5 17 6 38 3 l37
-6 -19 21 c-10 12 -22 19 -27 17 -4 -3 -10 -1 -14 5 -3 5 0 10 7 10 7 0 -4 9
-25 20 -36 19 -65 28 -40 12z"/>
<path d="M2370 3024 c-22 -12 -20 -19 4 -15 5 1 12 -3 16 -10 8 -13 30 -4 30
12 0 6 -5 7 -12 3 -8 -5 -9 -2 -5 9 7 20 1 20 -33 1z"/>
<path d="M1995 2980 c-3 -5 -1 -10 4 -10 6 0 11 5 11 10 0 6 -2 10 -4 10 -3 0
-8 -4 -11 -10z"/>
<path d="M860 2935 c-7 -9 -8 -15 -2 -15 5 0 12 7 16 15 3 8 4 15 2 15 -2 0
-9 -7 -16 -15z"/>
<path d="M2470 2875 c7 -8 16 -12 21 -9 13 8 1 24 -18 24 -13 0 -13 -3 -3 -15z"/>
<path d="M2177 2863 c-7 -7 21 -43 34 -43 9 0 7 20 -4 38 -9 13 -20 16 -30 5z"/>
<path d="M2260 2828 c11 -12 20 -25 20 -28 0 -8 46 -30 62 -30 6 0 -1 11 -16
25 -15 14 -29 25 -32 25 -3 0 -12 7 -20 15 -24 24 -37 17 -14 -7z"/>
<path d="M787 2833 c-11 -10 -8 -20 8 -27 10 -4 15 1 15 14 0 20 -11 26 -23
13z"/>
<path d="M2485 2831 c-3 -5 -1 -12 5 -16 5 -3 10 1 10 9 0 18 -6 21 -15 7z"/>
<path d="M1930 2800 c19 -13 30 -13 30 0 0 6 -10 10 -22 10 -19 0 -20 -2 -8
-10z"/>
<path d="M2195 2793 c-8 -24 -35 -32 -35 -11 0 6 -3 8 -7 5 -3 -4 4 -18 16
-31 12 -13 18 -27 13 -30 -5 -3 -12 -15 -15 -26 -4 -17 -3 -19 9 -9 8 6 14 17
14 25 0 7 9 16 20 19 11 3 20 11 20 16 0 13 48 11 56 -3 4 -6 3 -13 -3 -15
-19 -7 -3 -41 16 -36 21 5 17 63 -5 63 -8 0 -14 7 -14 15 0 10 -10 15 -34 15
-19 0 -37 6 -39 13 -4 7 -8 3 -12 -10z"/>
<path d="M2065 2759 c-5 -5 -21 -18 -35 -28 l-24 -18 27 0 c15 0 30 3 33 8 2
4 11 6 18 3 14 -6 30 22 20 37 -7 11 -26 11 -39 -2z"/>
<path d="M2368 2683 c12 -2 32 -2 45 0 12 2 2 4 -23 4 -25 0 -35 -2 -22 -4z"/>
<path d="M2308 2673 c7 -3 16 -2 19 1 4 3 -2 6 -13 5 -11 0 -14 -3 -6 -6z"/>
<path d="M2155 2640 c3 -5 8 -10 11 -10 2 0 4 5 4 10 0 6 -5 10 -11 10 -5 0
-7 -4 -4 -10z"/>
<path d="M2407 2640 c-140 -42 -185 -247 -75 -346 46 -42 87 -56 153 -52 73 4
120 31 159 91 104 161 -52 362 -237 307z"/>
<path d="M1973 2632 c-10 -6 -10 -12 1 -28 13 -17 12 -21 -1 -37 -9 -9 -13
-20 -9 -24 3 -4 15 3 26 15 17 18 19 26 10 42 -6 11 -8 25 -5 30 7 12 -5 13
-22 2z"/>
<path d="M2090 2605 c0 -8 -9 -15 -20 -15 -11 0 -20 -4 -20 -10 0 -5 14 -10
30 -10 25 0 30 4 30 25 0 14 -4 25 -10 25 -5 0 -10 -7 -10 -15z"/>
<path d="M2081 2434 c0 -11 3 -14 6 -6 3 7 2 16 -1 19 -3 4 -6 -2 -5 -13z"/>
<path d="M2026 2394 c-11 -7 -18 -16 -15 -18 2 -2 13 2 23 10 11 7 18 16 15
18 -2 2 -13 -2 -23 -10z"/>
<path d="M2047 2364 c-34 -18 -30 -28 7 -18 14 3 26 12 26 20 0 17 2 17 -33
-2z"/>
<path d="M2037 2293 c-32 -18 -43 -29 -35 -34 7 -5 15 -4 16 1 2 6 10 10 18
10 8 0 17 7 21 16 3 8 12 13 19 10 8 -3 14 1 14 9 0 19 4 19 -53 -12z"/>
<path d="M1990 2205 c0 -17 38 -26 44 -10 3 8 -5 15 -20 18 -15 2 -24 0 -24
-8z"/>
<path d="M2110 2210 c0 -5 5 -10 11 -10 5 0 7 5 4 10 -3 6 -8 10 -11 10 -2 0
-4 -4 -4 -10z"/>
<path d="M1902 2205 c4 -5 3 -14 -2 -20 -8 -10 -2 -14 25 -19 19 -4 39 -5 44
-2 5 3 14 -1 20 -8 14 -17 -2 -31 -24 -22 -9 3 -15 -1 -15 -9 0 -8 7 -15 15
-15 22 0 30 4 28 13 -2 4 2 7 7 7 17 0 11 40 -7 47 -10 4 -20 10 -23 15 -4 4
-22 11 -40 14 -19 4 -32 3 -28 -1z"/>
<path d="M2103 2129 c-7 -9 -9 -20 -3 -29 12 -19 22 -7 18 21 -2 19 -5 20 -15
8z"/>
<path d="M2040 2120 c0 -5 5 -10 11 -10 5 0 7 5 4 10 -3 6 -8 10 -11 10 -2 0
-4 -4 -4 -10z"/>
<path d="M2170 2086 c0 -8 5 -18 10 -21 14 -9 13 -23 -2 -28 -7 -2 -4 -3 7 -1
12 2 27 -6 37 -19 l17 -22 9 25 c12 30 10 33 -25 34 -21 1 -28 6 -28 20 0 11
-6 21 -12 23 -7 3 -13 -2 -13 -11z"/>
<path d="M20 2060 c8 -5 20 -10 25 -10 6 0 3 5 -5 10 -8 5 -19 10 -25 10 -5 0
-3 -5 5 -10z"/>
<path d="M2128 2063 c6 -2 18 -2 25 0 6 3 1 5 -13 5 -14 0 -19 -2 -12 -5z"/>
<path d="M2100 2040 c-9 -6 -10 -10 -3 -10 6 0 15 5 18 10 8 12 4 12 -15 0z"/>
<path d="M2280 2040 c-9 -6 -10 -10 -3 -10 6 0 15 5 18 10 8 12 4 12 -15 0z"/>
<path d="M138 2023 c7 -3 16 -2 19 1 4 3 -2 6 -13 5 -11 0 -14 -3 -6 -6z"/>
<path d="M1 2010 c0 -8 6 -28 14 -45 17 -39 18 -21 0 25 -7 19 -14 28 -14 20z"/>
<path d="M2098 1982 c-3 -11 0 -19 8 -19 8 0 14 9 14 19 0 10 -4 18 -9 18 -5
0 -11 -8 -13 -18z"/>
<path d="M2243 1981 c-14 -22 -8 -31 19 -31 19 0 54 27 47 35 -2 2 -15 6 -29
10 -18 4 -28 1 -37 -14z"/>
<path d="M2176 1965 c5 -22 2 -26 -25 -31 -17 -4 -33 -14 -36 -25 -4 -11 -13
-19 -21 -19 -29 0 -13 -18 22 -25 24 -4 39 -2 44 5 4 7 18 17 30 23 43 22 48
44 18 72 -34 31 -40 31 -32 0z"/>
<path d="M30 1926 c0 -11 50 -106 55 -106 3 0 -7 24 -21 53 -28 55 -34 65 -34
53z"/>
<path d="M1955 1910 c-3 -5 3 -10 15 -10 12 0 18 5 15 10 -3 6 -10 10 -15 10
-5 0 -12 -4 -15 -10z"/>
<path d="M2209 1836 c28 -15 64 -10 39 5 -7 5 -24 9 -38 8 l-25 0 24 -13z"/>
<path d="M2130 1810 c-8 -16 -8 -20 4 -20 16 0 29 27 16 35 -5 3 -14 -4 -20
-15z"/>
<path d="M106 1780 c27 -50 189 -210 259 -257 33 -22 87 -55 120 -72 72 -39
60 -29 -63 47 -112 69 -218 163 -279 247 -55 73 -62 80 -37 35z"/>
<path d="M2330 1755 c0 -8 7 -15 15 -15 8 0 15 7 15 15 0 8 -7 15 -15 15 -8 0
-15 -7 -15 -15z"/>
<path d="M1813 1753 c-16 -6 -17 -46 -1 -41 12 4 32 48 20 47 -4 0 -13 -3 -19
-6z"/>
<path d="M502 1715 c0 -11 3 -29 8 -40 11 -25 11 1 0 35 -6 20 -8 21 -8 5z"/>
<path d="M2650 1669 c0 -5 5 -7 10 -4 6 3 10 8 10 11 0 2 -4 4 -10 4 -5 0 -10
-5 -10 -11z"/>
<path d="M1827 1644 c-11 -11 -8 -64 3 -64 6 0 16 -12 22 -26 10 -21 9 -27 -3
-35 -8 -5 -9 -9 -2 -9 6 0 18 -3 27 -6 13 -5 16 1 16 30 0 29 -4 36 -20 36
-14 0 -20 7 -21 23 -1 31 -13 60 -22 51z"/>
<path d="M1873 1635 c0 -8 4 -12 9 -9 4 3 8 9 8 15 0 5 -4 9 -8 9 -5 0 -9 -7
-9 -15z"/>
<path d="M540 1586 c0 -12 68 -156 74 -156 4 0 -61 149 -70 159 -2 2 -4 1 -4
-3z"/>
<path d="M954 1442 c2 -9 8 -18 14 -20 17 -5 15 25 -2 31 -9 4 -13 0 -12 -11z"/>
<path d="M550 1415 c0 -5 95 -55 105 -55 10 0 4 15 -16 40 -18 23 -19 23 -9 3
13 -28 10 -28 -40 -3 -22 11 -40 18 -40 15z"/>
<path d="M1165 1349 c-4 -11 -5 -22 -3 -25 7 -6 58 20 58 29 0 5 -4 6 -9 2 -5
-3 -12 -1 -16 5 -10 16 -23 12 -30 -11z"/>
<path d="M980 1310 c0 -5 5 -10 10 -10 6 0 10 5 10 10 0 6 -4 10 -10 10 -5 0
-10 -4 -10 -10z"/>
<path d="M1350 1290 c0 -5 7 -10 15 -10 8 0 15 5 15 10 0 6 -7 10 -15 10 -8 0
-15 -4 -15 -10z"/>
<path d="M1115 1280 c-3 -5 -1 -10 4 -10 6 0 11 5 11 10 0 6 -2 10 -4 10 -3 0
-8 -4 -11 -10z"/>
<path d="M1280 1070 c0 -5 5 -10 10 -10 6 0 10 5 10 10 0 6 -4 10 -10 10 -5 0
-10 -4 -10 -10z"/>
<path d="M1540 850 c0 -5 5 -10 10 -10 6 0 10 5 10 10 0 6 -4 10 -10 10 -5 0
-10 -4 -10 -10z"/>
<path d="M1416 843 c-9 -10 -7 -43 3 -43 17 0 41 12 41 21 0 11 -36 30 -44 22z"/>
<path d="M1490 816 c0 -16 27 -29 35 -16 3 5 -4 14 -15 20 -16 8 -20 8 -20 -4z"/>
<path d="M1550 800 c0 -5 5 -10 11 -10 5 0 7 5 4 10 -3 6 -8 10 -11 10 -2 0
-4 -4 -4 -10z"/>
<path d="M1449 784 c-11 -14 -10 -18 6 -30 17 -13 18 -16 5 -25 -11 -7 -8 -8
11 -3 15 3 30 1 33 -5 5 -7 -3 -11 -18 -11 -14 0 -26 -4 -26 -10 0 -5 4 -10 9
-10 5 0 12 -11 15 -25 5 -20 13 -25 36 -25 31 0 40 14 18 24 -7 4 -3 4 10 2
24 -4 28 4 11 21 -7 7 -8 13 0 17 16 10 -19 76 -40 76 -10 0 -21 5 -24 10 -9
15 -31 12 -46 -6z"/>
<path d="M1625 770 c-3 -5 -2 -10 4 -10 5 0 13 5 16 10 3 6 2 10 -4 10 -5 0
-13 -4 -16 -10z"/>
<path d="M1580 650 c0 -5 7 -10 16 -10 8 0 12 5 9 10 -3 6 -10 10 -16 10 -5 0
-9 -4 -9 -10z"/>
<path d="M1675 630 c-8 -13 5 -13 25 0 13 8 13 10 -2 10 -9 0 -20 -4 -23 -10z"/>
<path d="M1550 616 c0 -9 5 -16 10 -16 6 0 10 4 10 9 0 6 -4 13 -10 16 -5 3
-10 -1 -10 -9z"/>
<path d="M1700 605 c0 -8 5 -15 10 -15 6 0 10 7 10 15 0 8 -4 15 -10 15 -5 0
-10 -7 -10 -15z"/>
</g>
</svg>
